<svg width="20" height="20" viewBox="0 0 20 20" fill="none" xmlns="http://www.w3.org/2000/svg">
<path d="M18.4922 14.6875L11.625 2.81249C11.4606 2.52689 11.2238 2.28966 10.9386 2.12471C10.6533 1.95975 10.3296 1.8729 10 1.8729C9.67047 1.8729 9.34675 1.95975 9.06147 2.12471C8.77619 2.28966 8.53942 2.52689 8.37501 2.81249L1.50783 14.6875C1.341 14.9716 1.25235 15.2949 1.25086 15.6244C1.24937 15.9539 1.3351 16.2779 1.49935 16.5636C1.6636 16.8492 1.90051 17.0863 2.18603 17.2508C2.47155 17.4152 2.79551 17.5012 3.12501 17.5H16.875C17.2045 17.5012 17.5285 17.4152 17.814 17.2508C18.0995 17.0863 18.3364 16.8492 18.5007 16.5636C18.6649 16.2779 18.7507 15.9539 18.7492 15.6244C18.7477 15.2949 18.659 14.9716 18.4922 14.6875ZM9.37501 8.12499C9.37501 7.95923 9.44086 7.80026 9.55807 7.68305C9.67528 7.56584 9.83425 7.49999 10 7.49999C10.1658 7.49999 10.3247 7.56584 10.442 7.68305C10.5592 7.80026 10.625 7.95923 10.625 8.12499V11.25C10.625 11.4157 10.5592 11.5747 10.442 11.6919C10.3247 11.8091 10.1658 11.875 10 11.875C9.83425 11.875 9.67528 11.8091 9.55807 11.6919C9.44086 11.5747 9.37501 11.4157 9.37501 11.25V8.12499ZM10 15C9.81459 15 9.63334 14.945 9.47917 14.842C9.325 14.739 9.20483 14.5926 9.13388 14.4213C9.06292 14.2499 9.04435 14.0614 9.08053 13.8796C9.1167 13.6977 9.20599 13.5307 9.3371 13.3996C9.46821 13.2685 9.63526 13.1792 9.81711 13.143C9.99897 13.1068 10.1875 13.1254 10.3588 13.1964C10.5301 13.2673 10.6765 13.3875 10.7795 13.5416C10.8825 13.6958 10.9375 13.8771 10.9375 14.0625C10.9375 14.3111 10.8387 14.5496 10.6629 14.7254C10.4871 14.9012 10.2487 15 10 15Z" fill="#DA1414"/>
</svg>
